<?xml version="1.0" encoding="utf-8"?>
<!-- Generator: Adobe Illustrator 24.2.3, SVG Export Plug-In . SVG Version: 6.00 Build 0)  -->
<svg version="1.1" id="Layer_1" xmlns="http://www.w3.org/2000/svg" xmlns:xlink="http://www.w3.org/1999/xlink" x="0px" y="0px"
	 viewBox="0 0 2189.7 776" style="enable-background:new 0 0 2189.7 776;" xml:space="preserve">
<style type="text/css">
	.st0{fill:#08204E;}
	.st1{fill:url(#SVGID_1_);}
	.st2{fill:url(#SVGID_2_);}
	.st3{fill:url(#SVGID_3_);}
	.st4{fill:url(#SVGID_4_);}
</style>
<rect x="-364.6" class="st0" width="2996.3" height="776"/>
<g>
	<g>
		
			<linearGradient id="SVGID_1_" gradientUnits="userSpaceOnUse" x1="2373.6787" y1="554.8216" x2="2373.5608" y2="554.6966" gradientTransform="matrix(-2723.947 -47.5467 54.5536 -3125.376 6436548.5 1847456.375)">
			<stop  offset="0" style="stop-color:#0A265C"/>
			<stop  offset="1" style="stop-color:#5A4A9E"/>
		</linearGradient>
		<path class="st1" d="M1460.4,2184.6c-173.8,109.5-226.7,340.2-118.1,515.4s337.5,228.4,511.4,118.9
			c774.8-488,1010.6-1516.5,526.5-2297.3c-484-780.7-1504.5-1018-2279.4-530C-73,101-125.9,331.7-17.3,506.9S320.2,735.3,494,625.8
			c427.2-269,989.8-138.2,1256.6,292.2C2017.5,1348.5,1887.6,1915.5,1460.4,2184.6L1460.4,2184.6z"/>
		
			<linearGradient id="SVGID_2_" gradientUnits="userSpaceOnUse" x1="2372.9153" y1="554.7289" x2="2373.5703" y2="554.7609" gradientTransform="matrix(-2299.4998 78.4627 -50.5981 -1401.0397 5487164.5 591636.4375)">
			<stop  offset="0" style="stop-color:#AB71FF"/>
			<stop  offset="1" style="stop-color:#0A265C"/>
		</linearGradient>
		<path class="st2" d="M-109.2,511.3c-191.3,73.9-286.9,290.2-213.4,483s408.8,421.8,600.2,347.9l1376.6-711.4
			c191.3-73.9,286.9-290.2,213.4-483S1579.4-141.3,1388-67.4L-109.2,511.3L-109.2,511.3z"/>
		
			<linearGradient id="SVGID_3_" gradientUnits="userSpaceOnUse" x1="2372.1433" y1="553.9851" x2="2372.6875" y2="554.2262" gradientTransform="matrix(1971.4285 2777.7964 2777.6414 -1971.3395 -6215753 -5498013)">
			<stop  offset="0" style="stop-color:#0A265C"/>
			<stop  offset="0.541" style="stop-color:#0A265C"/>
			<stop  offset="1" style="stop-color:#5396F0"/>
		</linearGradient>
		<path class="st3" d="M1404.2,149.6c184.2,28.4,309.3,200.5,279.3,384.5c-29.9,183.9-203.4,310-387.6,281.6L-334.8,564.2
			C-519,535.8-644,363.7-614.2,179.7l264.7-1628.6c29.9-183.9,203.4-310,387.6-281.6S347.4-1530,317.5-1346L107-50.4L1404.2,149.6z"
			/>
		
			<linearGradient id="SVGID_4_" gradientUnits="userSpaceOnUse" x1="2372.3027" y1="554.7673" x2="2372.9575" y2="554.7993" gradientTransform="matrix(1343.0773 1868.1539 -1136.6775 820.6319 -2555452.5 -4887533)">
			<stop  offset="0" style="stop-color:#9FDDFF"/>
			<stop  offset="1" style="stop-color:#0A265C"/>
		</linearGradient>
		<path class="st4" d="M1540.6,1849.7c167.7,118,400.7,77.3,520.1-91c119.4-168.2,123.5-574.3-44.3-692.3L660,317.2
			c-167.7-118-400.7-77.3-520.1,91s-80.2,400.3,87.6,518.3L1540.6,1849.7L1540.6,1849.7z"/>
	</g>
</g>
</svg>
